<svg xmlns="http://www.w3.org/2000/svg" xmlns:xlink="http://www.w3.org/1999/xlink" viewBox="0,0,256,256" width="50px" height="50px" fill-rule="nonzero"><g fill="#000000" fill-rule="nonzero" stroke="none" stroke-width="1" stroke-linecap="butt" stroke-linejoin="miter" stroke-miterlimit="10" stroke-dasharray="" stroke-dashoffset="0" font-family="none" font-weight="none" font-size="none" text-anchor="none" style="mix-blend-mode: normal"><g transform="scale(5.12,5.12)"><path d="M11.98438,4c-0.25977,0.00414 -0.50774,0.10921 -0.69141,0.29297l-8,8c-0.18754,0.18751 -0.29292,0.44183 -0.29297,0.70703v23c0.00005,0.2652 0.10543,0.51952 0.29297,0.70703l10,10c0.28603,0.28583 0.71604,0.37129 1.08963,0.21656c0.37359,-0.15474 0.61724,-0.51922 0.6174,-0.92359v-20.58594l9.29297,9.29297c0.39053,0.39037 1.02353,0.39037 1.41406,0l9.29297,-9.29297v20.58594c0.00016,0.40437 0.24381,0.76885 0.6174,0.92359c0.37359,0.15474 0.8036,0.06927 1.08963,-0.21656l10,-10c0.18754,-0.18751 0.29292,-0.44183 0.29297,-0.70703v-23c-0.00005,-0.2652 -0.10543,-0.51952 -0.29297,-0.70703l-8,-8c-0.39053,-0.39037 -1.02353,-0.39037 -1.41406,0l-12.29297,12.29297l-12.29297,-12.29297c-0.19132,-0.19141 -0.45205,-0.29711 -0.72266,-0.29297zM12,6.41406l12,12v13.17188l-18.58594,-18.58594zM38,6.41406l6.58594,6.58594l-18.58594,18.58594v-13.17188zM5,15.41406l8,8v20.17188l-8,-8zM45,15.41406v20.17188l-8,8v-20.17188z"></path></g></g><g fill="#ff2424" fill-rule="nonzero" stroke="none" stroke-width="1" stroke-linecap="butt" stroke-linejoin="miter" stroke-miterlimit="10" stroke-dasharray="" stroke-dashoffset="0" font-family="none" font-weight="none" font-size="none" text-anchor="none" style="mix-blend-mode: normal"><g><path d="M84.995,213.68v0c0,-0.56667 -0.2,-1 -0.6,-1.3c-0.4,-0.30667 -1.12,-0.63 -2.16,-0.97c-1.04,-0.33333 -1.86333,-0.66333 -2.47,-0.99v0c-1.65333,-0.89333 -2.48,-2.09667 -2.48,-3.61v0c0,-0.78667 0.22,-1.48667 0.66,-2.1c0.44667,-0.62 1.08333,-1.10333 1.91,-1.45c0.83333,-0.34667 1.76667,-0.52 2.8,-0.52v0c1.04,0 1.96667,0.19 2.78,0.57c0.81333,0.37333 1.44667,0.90333 1.9,1.59c0.44667,0.68667 0.67,1.46667 0.67,2.34v0h-3c0,-0.66667 -0.21,-1.18333 -0.63,-1.55c-0.42,-0.37333 -1.01,-0.56 -1.77,-0.56v0c-0.73333,0 -1.30333,0.15667 -1.71,0.47c-0.40667,0.30667 -0.61,0.71333 -0.61,1.22v0c0,0.47333 0.24,0.87 0.72,1.19c0.47333,0.32 1.17333,0.62 2.1,0.9v0c1.70667,0.51333 2.95,1.15 3.73,1.91c0.78,0.76 1.17,1.70667 1.17,2.84v0c0,1.26 -0.47667,2.25 -1.43,2.97c-0.95333,0.71333 -2.23667,1.07 -3.85,1.07v0c-1.12,0 -2.14,-0.20333 -3.06,-0.61c-0.92,-0.41333 -1.62,-0.97667 -2.1,-1.69c-0.48667,-0.71333 -0.73,-1.54 -0.73,-2.48v0h3.01c0,1.60667 0.96,2.41 2.88,2.41v0c0.71333,0 1.27,-0.14333 1.67,-0.43c0.4,-0.29333 0.6,-0.7 0.6,-1.22zM92.665,202.14v5.72c0.76667,-0.92 1.73,-1.38 2.89,-1.38v0c2.34667,0 3.53667,1.36333 3.57,4.09v0v6.93h-2.89v-6.85c0,-0.62 -0.13333,-1.07667 -0.4,-1.37c-0.26667,-0.3 -0.71,-0.45 -1.33,-0.45v0c-0.84667,0 -1.46,0.32667 -1.84,0.98v0v7.69h-2.89v-15.36zM110.495,217.5h-2.92c-0.13333,-0.26 -0.23,-0.58333 -0.29,-0.97v0c-0.7,0.78 -1.61,1.17 -2.73,1.17v0c-1.06,0 -1.93667,-0.30667 -2.63,-0.92c-0.7,-0.61333 -1.05,-1.38667 -1.05,-2.32v0c0,-1.14667 0.42667,-2.02667 1.28,-2.64c0.84667,-0.61333 2.07333,-0.92333 3.68,-0.93v0h1.33v-0.62c0,-0.5 -0.12667,-0.9 -0.38,-1.2c-0.26,-0.3 -0.66667,-0.45 -1.22,-0.45v0c-0.48667,0 -0.87,0.11667 -1.15,0.35c-0.27333,0.23333 -0.41,0.55333 -0.41,0.96v0h-2.89c0,-0.62667 0.19333,-1.20667 0.58,-1.74c0.38667,-0.53333 0.93333,-0.95 1.64,-1.25c0.70667,-0.30667 1.5,-0.46 2.38,-0.46v0c1.33333,0 2.39333,0.33333 3.18,1c0.78,0.67333 1.17,1.61667 1.17,2.83v0v4.69c0.00667,1.02667 0.15,1.80333 0.43,2.33v0zM105.185,215.49v0c0.42667,0 0.82,-0.09333 1.18,-0.28c0.36,-0.19333 0.62667,-0.45 0.8,-0.77v0v-1.86h-1.08c-1.44667,0 -2.21667,0.5 -2.31,1.5v0l-0.01,0.17c0,0.36 0.12667,0.65667 0.38,0.89c0.25333,0.23333 0.6,0.35 1.04,0.35zM115.105,202.14v5.72c0.76667,-0.92 1.73,-1.38 2.89,-1.38v0c2.34667,0 3.53667,1.36333 3.57,4.09v0v6.93h-2.89v-6.85c0,-0.62 -0.13333,-1.07667 -0.4,-1.37c-0.26667,-0.3 -0.71,-0.45 -1.33,-0.45v0c-0.84667,0 -1.46,0.32667 -1.84,0.98v0v7.69h-2.89v-15.36zM129.865,206.61l-0.04,2.78c-0.39333,-0.05333 -0.74,-0.08 -1.04,-0.08v0c-1.09333,0 -1.81,0.37 -2.15,1.11v0v7.08h-2.89v-10.82h2.73l0.08,1.29c0.58,-0.99333 1.38333,-1.49 2.41,-1.49v0c0.32,0 0.62,0.04333 0.9,0.13zM140.105,217.5h-2.92c-0.13333,-0.26 -0.23,-0.58333 -0.29,-0.97v0c-0.7,0.78 -1.61,1.17 -2.73,1.17v0c-1.06,0 -1.93667,-0.30667 -2.63,-0.92c-0.7,-0.61333 -1.05,-1.38667 -1.05,-2.32v0c0,-1.14667 0.42667,-2.02667 1.28,-2.64c0.84667,-0.61333 2.07333,-0.92333 3.68,-0.93v0h1.33v-0.62c0,-0.5 -0.12667,-0.9 -0.38,-1.2c-0.26,-0.3 -0.66667,-0.45 -1.22,-0.45v0c-0.48667,0 -0.86667,0.11667 -1.14,0.35c-0.28,0.23333 -0.42,0.55333 -0.42,0.96v0h-2.89c0,-0.62667 0.19333,-1.20667 0.58,-1.74c0.38667,-0.53333 0.93333,-0.95 1.64,-1.25c0.70667,-0.30667 1.5,-0.46 2.38,-0.46v0c1.33333,0 2.39333,0.33333 3.18,1c0.78,0.67333 1.17,1.61667 1.17,2.83v0v4.69c0.00667,1.02667 0.15,1.80333 0.43,2.33v0zM134.795,215.49v0c0.42667,0 0.82,-0.09333 1.18,-0.28c0.36,-0.19333 0.62667,-0.45 0.8,-0.77v0v-1.86h-1.08c-1.44667,0 -2.21667,0.5 -2.31,1.5v0l-0.01,0.17c0,0.36 0.12667,0.65667 0.38,0.89c0.25333,0.23333 0.6,0.35 1.04,0.35zM151.645,212.03v0.16c0,1.73333 -0.37,3.08667 -1.11,4.06c-0.74,0.96667 -1.77333,1.45 -3.1,1.45v0c-1.17333,0 -2.11,-0.45 -2.81,-1.35v0l-0.13,1.15h-2.6v-15.36h2.89v5.51c0.66667,-0.78 1.54333,-1.17 2.63,-1.17v0c1.32,0 2.35667,0.48667 3.11,1.46c0.74667,0.96667 1.12,2.33 1.12,4.09zM148.755,211.98v0c0,-1.09333 -0.17333,-1.89 -0.52,-2.39c-0.34667,-0.50667 -0.86333,-0.76 -1.55,-0.76v0c-0.92,0 -1.55333,0.37667 -1.9,1.13v0v4.27c0.35333,0.76 0.99333,1.14 1.92,1.14v0c0.93333,0 1.54667,-0.46 1.84,-1.38v0c0.14,-0.44 0.21,-1.11 0.21,-2.01zM162.615,217.5h-2.92c-0.13333,-0.26 -0.23,-0.58333 -0.29,-0.97v0c-0.7,0.78 -1.61,1.17 -2.73,1.17v0c-1.06,0 -1.94,-0.30667 -2.64,-0.92c-0.69333,-0.61333 -1.04,-1.38667 -1.04,-2.32v0c0,-1.14667 0.42667,-2.02667 1.28,-2.64c0.84667,-0.61333 2.07333,-0.92333 3.68,-0.93v0h1.33v-0.62c0,-0.5 -0.13,-0.9 -0.39,-1.2c-0.25333,-0.3 -0.65667,-0.45 -1.21,-0.45v0c-0.48667,0 -0.87,0.11667 -1.15,0.35c-0.27333,0.23333 -0.41,0.55333 -0.41,0.96v0h-2.89c0,-0.62667 0.19333,-1.20667 0.58,-1.74c0.38667,-0.53333 0.93333,-0.95 1.64,-1.25c0.70667,-0.30667 1.5,-0.46 2.38,-0.46v0c1.33333,0 2.39333,0.33333 3.18,1c0.78,0.67333 1.17,1.61667 1.17,2.83v0v4.69c0.00667,1.02667 0.15,1.80333 0.43,2.33v0zM157.305,215.49v0c0.42667,0 0.82,-0.09333 1.18,-0.28c0.36,-0.19333 0.62667,-0.45 0.8,-0.77v0v-1.86h-1.08c-1.44667,0 -2.21667,0.5 -2.31,1.5v0l-0.01,0.17c0,0.36 0.12667,0.65667 0.38,0.89c0.25333,0.23333 0.6,0.35 1.04,0.35zM163.955,212.01v0c0,-1.68667 0.38,-3.03 1.14,-4.03c0.75333,-1 1.78667,-1.5 3.1,-1.5v0c1.05333,0 1.92333,0.39333 2.61,1.18v0v-5.52h2.9v15.36h-2.61l-0.14,-1.15c-0.72,0.9 -1.64667,1.35 -2.78,1.35v0c-1.27333,0 -2.29333,-0.5 -3.06,-1.5c-0.77333,-1.00667 -1.16,-2.40333 -1.16,-4.19zM166.845,212.22v0c0,1.01333 0.17667,1.79 0.53,2.33c0.35333,0.54 0.86667,0.81 1.54,0.81v0c0.89333,0 1.52333,-0.37667 1.89,-1.13v0v-4.27c-0.36,-0.75333 -0.98333,-1.13 -1.87,-1.13v0c-1.39333,0 -2.09,1.13 -2.09,3.39zM178.995,206.68v10.82h-2.9v-10.82zM175.925,203.88v0c0,-0.43333 0.14667,-0.79 0.44,-1.07c0.28667,-0.28 0.68,-0.42 1.18,-0.42v0c0.49333,0 0.88667,0.14 1.18,0.42c0.29333,0.28 0.44,0.63667 0.44,1.07v0c0,0.44 -0.14667,0.8 -0.44,1.08c-0.3,0.28 -0.69333,0.42 -1.18,0.42c-0.48667,0 -0.87667,-0.14 -1.17,-0.42c-0.3,-0.28 -0.45,-0.64 -0.45,-1.08z"></path></g></g></svg>